<svg width="330" height="251" viewBox="0 0 330 251" fill="none" xmlns="http://www.w3.org/2000/svg">
<g clip-path="url(#clip0_1433_18013)">
<path d="M132.15 52.1776H130.949V19.3393C130.949 16.8434 130.457 14.372 129.501 12.0661C128.544 9.76016 127.143 7.66496 125.376 5.90009C123.609 4.13523 121.511 2.73526 119.202 1.78012C116.893 0.824982 114.419 0.333376 111.92 0.333374H42.2602C37.2132 0.333364 32.3729 2.33576 28.8042 5.90005C25.2354 9.46434 23.2305 14.2986 23.2305 19.3393V199.493C23.2305 201.989 23.7227 204.46 24.679 206.766C25.6353 209.072 27.0371 211.167 28.8041 212.932C30.5712 214.697 32.669 216.097 34.9778 217.052C37.2866 218.007 39.7611 218.499 42.2601 218.499H111.92C116.967 218.499 121.807 216.496 125.376 212.932C128.944 209.368 130.949 204.534 130.949 199.493V75.5525H132.15V52.1776Z" fill="#3F3D56"/>
<path d="M154.477 218.53H0.90308C0.796176 218.53 0.693651 218.487 0.618059 218.412C0.542467 218.336 0.5 218.234 0.5 218.127C0.5 218.021 0.542467 217.918 0.618059 217.843C0.693651 217.767 0.796176 217.725 0.90308 217.725H154.477C154.583 217.725 154.686 217.767 154.762 217.843C154.837 217.918 154.88 218.021 154.88 218.127C154.88 218.234 154.837 218.336 154.762 218.412C154.686 218.487 154.583 218.53 154.477 218.53Z" fill="#CBCBCB"/>
<path d="M280.336 221.871C280.75 221.202 281.238 220.582 281.79 220.021C282.017 219.786 282.257 219.563 282.505 219.347C284.01 218.009 285.844 217.096 287.82 216.701C289.796 216.306 291.841 216.444 293.746 217.1C295.65 217.756 297.346 218.907 298.657 220.435C299.969 221.962 300.849 223.811 301.208 225.791C302.871 219.651 298.543 213.603 294.192 208.958C289.839 204.313 284.864 199.219 284.889 192.855C284.901 189.314 286.635 186.155 289.254 183.813C289.335 183.742 289.415 183.671 289.498 183.603C292.663 180.893 296.735 179.476 300.9 179.634C308.639 180.048 315.396 185.243 320.089 191.405C327.642 201.319 330.952 215.236 325.664 226.522C321.013 236.448 311.093 242.342 300.969 247.081C299.555 247.743 298.145 248.385 296.736 249.007C296.727 249.009 296.717 249.016 296.708 249.018C296.64 249.048 296.572 249.078 296.509 249.108C296.218 249.236 295.927 249.364 295.639 249.491L295.773 249.578L296.189 249.847C296.045 249.76 295.902 249.675 295.758 249.588C295.715 249.561 295.669 249.537 295.626 249.51C290.654 246.53 285.613 243.378 282.177 238.726C278.615 233.896 277.182 226.977 280.336 221.871Z" fill="#F1F1F1"/>
<path d="M313.511 210.654C314.612 213.156 315.342 215.804 315.678 218.516C315.942 220.934 315.843 223.379 315.383 225.768C314.396 230.677 312.243 235.277 309.104 239.182C306.737 242.147 304.003 244.801 300.969 247.081C299.556 247.743 298.145 248.385 296.737 249.007C296.728 249.009 296.718 249.016 296.708 249.018C296.64 249.048 296.573 249.078 296.509 249.108C296.218 249.236 295.928 249.364 295.64 249.491L295.773 249.578L296.189 249.847C296.045 249.76 295.902 249.675 295.758 249.588C295.715 249.561 295.67 249.537 295.627 249.51C296.721 245.687 296.882 241.658 296.096 237.76C295.31 233.863 293.6 230.21 291.109 227.108C288.605 224.045 285.412 221.617 281.79 220.021C282.018 219.786 282.258 219.564 282.505 219.347C283.9 219.987 285.236 220.749 286.497 221.624C291.006 224.737 294.393 229.217 296.154 234.402C297.727 239.105 297.923 244.159 296.72 248.97C296.97 248.807 297.22 248.64 297.464 248.474C302.096 245.354 306.365 241.607 309.581 237.012C312.355 233.129 314.129 228.624 314.749 223.894C315.365 218.728 314.071 213.647 311.762 209.037C309.211 204.105 305.998 199.545 302.21 195.482C298.406 191.308 294.104 187.614 289.402 184.483C289.296 184.412 289.221 184.302 289.194 184.178C289.167 184.053 289.188 183.922 289.254 183.813C289.305 183.714 289.392 183.638 289.498 183.603C289.552 183.589 289.608 183.588 289.663 183.599C289.717 183.61 289.768 183.633 289.812 183.666C290.393 184.053 290.969 184.444 291.537 184.846C296.273 188.195 300.574 192.119 304.341 196.527C307.981 200.776 311.294 205.497 313.511 210.654Z" fill="white"/>
<path d="M175.523 250.333H329.097C329.204 250.333 329.306 250.291 329.382 250.215C329.457 250.14 329.5 250.038 329.5 249.931C329.5 249.824 329.457 249.722 329.382 249.646C329.306 249.571 329.204 249.528 329.097 249.528H175.523C175.416 249.528 175.314 249.571 175.238 249.646C175.163 249.722 175.12 249.824 175.12 249.931C175.12 250.038 175.163 250.14 175.238 250.215C175.314 250.291 175.416 250.333 175.523 250.333Z" fill="#CBCBCB"/>
<path d="M212.459 218.212L205.013 218.095L205.908 243.444H212.458L212.459 218.212Z" fill="#FFB7B7"/>
<path d="M214.129 241.308L201.23 241.308H201.229C199.049 241.308 196.958 242.173 195.417 243.713C193.875 245.252 193.009 247.34 193.009 249.518V249.785L214.128 249.785L214.129 241.308Z" fill="#2F2E41"/>
<path d="M261.762 211.489L253.628 216.705L269.899 236.256L275.411 232.722L261.762 211.489Z" fill="#FFB7B7"/>
<path d="M275.661 230.023L264.807 236.983L264.806 236.983C262.972 238.16 261.68 240.016 261.216 242.143C260.752 244.271 261.152 246.495 262.33 248.328L262.475 248.552L280.247 237.156L275.661 230.023Z" fill="#2F2E41"/>
<path d="M196.146 150.785C194.753 151.172 193.266 151.035 191.968 150.4C190.669 149.764 189.649 148.676 189.101 147.34C188.552 146.004 188.513 144.513 188.992 143.15C189.47 141.788 190.433 140.647 191.696 139.946L204.232 125.742L214.835 128.03L199.922 142.618C200.289 143.394 200.481 144.24 200.484 145.098C200.488 145.956 200.303 146.804 199.943 147.582C199.583 148.361 199.057 149.051 198.401 149.605C197.745 150.158 196.975 150.561 196.146 150.785H196.146Z" fill="#FFB7B7"/>
<path d="M173.035 124.814C175.469 124.814 177.443 122.843 177.443 120.412C177.443 117.981 175.469 116.011 173.035 116.011C170.601 116.011 168.628 117.981 168.628 120.412C168.628 122.843 170.601 124.814 173.035 124.814Z" fill="#F1F1F1"/>
<path d="M302.021 112.737C304.455 112.737 306.428 110.766 306.428 108.335C306.428 105.904 304.455 103.933 302.021 103.933C299.587 103.933 297.613 105.904 297.613 108.335C297.613 110.766 299.587 112.737 302.021 112.737Z" fill="#F1F1F1"/>
<path d="M112.688 5.27808H103.595C104.013 6.30198 104.172 7.41288 104.059 8.51291C103.946 9.61295 103.564 10.6684 102.947 11.5861C102.329 12.5039 101.495 13.256 100.518 13.776C99.5409 14.296 98.4507 14.568 97.3435 14.5681H57.4365C56.3293 14.568 55.2392 14.296 54.262 13.776C53.2849 13.256 52.4508 12.504 51.8332 11.5862C51.2157 10.6684 50.8335 9.61295 50.7206 8.51292C50.6076 7.41289 50.7672 6.30198 51.1854 5.27808H42.6926C40.8264 5.27807 38.9784 5.6452 37.2542 6.35848C35.5301 7.07177 33.9634 8.11724 32.6438 9.43522C31.3242 10.7532 30.2774 12.3179 29.5632 14.0399C28.849 15.7619 28.4814 17.6076 28.4814 19.4715V199.361C28.4814 201.225 28.849 203.07 29.5632 204.792C30.2774 206.514 31.3242 208.079 32.6438 209.397C33.9634 210.715 35.5301 211.76 37.2542 212.474C38.9784 213.187 40.8264 213.554 42.6926 213.554H112.688C114.554 213.554 116.402 213.187 118.126 212.474C119.85 211.76 121.417 210.715 122.736 209.397C124.056 208.079 125.103 206.514 125.817 204.792C126.531 203.07 126.899 201.225 126.899 199.361V19.4715C126.899 17.6076 126.531 15.7619 125.817 14.0399C125.103 12.3179 124.056 10.7532 122.736 9.43522C121.417 8.11724 119.85 7.07177 118.126 6.35848C116.402 5.6452 114.554 5.27807 112.688 5.27808Z" fill="white"/>
<path d="M77.6899 139.496C96.4889 139.496 111.729 124.275 111.729 105.5C111.729 86.7243 96.4889 71.5038 77.6899 71.5038C58.891 71.5038 43.6514 86.7243 43.6514 105.5C43.6514 124.275 58.891 139.496 77.6899 139.496Z" fill="url(#paint0_linear_1433_18013)"/>
<path d="M74.3171 118.468C73.5513 118.47 72.8059 118.222 72.1932 117.763L72.1552 117.735L64.1557 111.623C63.7852 111.34 63.4743 110.986 63.2407 110.582C63.0071 110.178 62.8554 109.733 62.7943 109.27C62.7332 108.808 62.7638 108.339 62.8844 107.888C63.005 107.438 63.2133 107.015 63.4974 106.645C63.7814 106.275 64.1356 105.965 64.5398 105.732C64.944 105.498 65.3903 105.347 65.8531 105.286C66.3159 105.225 66.7862 105.255 67.2372 105.376C67.6882 105.496 68.111 105.704 68.4815 105.988L73.6629 109.956L85.907 94.0025C86.1909 93.6326 86.545 93.3222 86.949 93.089C87.353 92.8558 87.7991 92.7044 88.2617 92.6434C88.7243 92.5823 89.1945 92.6129 89.6453 92.7333C90.0961 92.8538 90.5187 93.0617 90.889 93.3453L90.8901 93.346L90.8141 93.4514L90.8921 93.346C91.6393 93.9195 92.1281 94.7657 92.2513 95.6987C92.3745 96.6317 92.1221 97.5755 91.5494 98.3229L77.1478 117.08C76.8146 117.512 76.3862 117.862 75.8958 118.102C75.4055 118.342 74.8663 118.466 74.3202 118.464L74.3171 118.468Z" fill="white"/>
<path d="M237.389 99.9329L206.144 139.104L196.62 134.736L233.345 77.6329L237.389 99.9329Z" fill="#3F3D56"/>
<path d="M312.149 39.2364C312.351 37.8065 312.02 36.3524 311.22 35.1496C310.42 33.9468 309.206 33.079 307.808 32.7105C306.41 32.3419 304.925 32.4984 303.635 33.1502C302.345 33.8019 301.339 34.9037 300.808 36.2468L288.346 50.5158L292.002 60.7158L304.535 44.043C305.353 44.3047 306.218 44.384 307.07 44.2755C307.922 44.167 308.74 43.8733 309.466 43.4151C310.192 42.9568 310.808 42.3451 311.272 41.6232C311.735 40.9012 312.035 40.0865 312.149 39.2364Z" fill="#FFB7B7"/>
<path d="M260.491 94.7573L301.859 50.6635L296.279 41.8036L244.394 85.6297L260.491 94.7573Z" fill="#3F3D56"/>
<path d="M251.259 67.9662C259.273 67.9662 265.77 61.4776 265.77 53.4735C265.77 45.4693 259.273 38.9807 251.259 38.9807C243.245 38.9807 236.748 45.4693 236.748 53.4735C236.748 61.4776 243.245 67.9662 251.259 67.9662Z" fill="#2F2E41"/>
<path d="M252.426 45.2864C255.548 42.124 259.327 39.6835 263.496 38.137C266.172 37.1469 269.084 36.5351 271.882 37.0974C274.679 37.6597 277.325 39.5926 278.105 42.3341C278.744 44.5757 278.085 46.9894 277.094 49.0996C276.104 51.2098 274.781 53.1666 273.981 55.3555C273.163 57.5891 272.918 59.991 273.266 62.3435C273.614 64.6959 274.544 66.9243 275.973 68.8263C277.402 70.7284 279.284 72.2439 281.449 73.2352C283.613 74.2265 285.991 74.6623 288.366 74.503C285.617 74.8711 283.084 76.1612 280.397 76.848C277.71 77.5346 274.539 77.4881 272.542 75.5657C270.43 73.5317 270.388 70.2246 270.49 67.2957C270.642 62.9419 270.793 58.588 270.945 54.2342C271.023 52.0138 271.089 49.7222 270.287 47.6498C269.485 45.5774 267.58 43.7627 265.355 43.7815C263.67 43.7958 262.177 44.8158 260.825 45.8218C259.473 46.8277 258.042 47.901 256.363 48.0506C254.684 48.2002 252.766 46.959 252.892 45.2799L252.426 45.2864Z" fill="#2F2E41"/>
<path d="M264.66 134.085C264.66 134.085 246.586 74.1308 240.778 73.3206C234.969 72.5104 225.611 88.7042 225.611 88.7042C213.477 104.166 200.965 154.252 200.965 154.252C200.965 154.252 221.823 155.556 237.07 163.658C252.317 171.76 270.311 163.247 270.311 163.247L264.66 134.085Z" fill="#3F3D56"/>
<path opacity="0.1" d="M264.66 134.085C264.66 134.085 246.586 74.1307 240.778 73.3205C234.969 72.5103 227.988 88.8685 227.988 88.8685C221.942 113.828 200.965 154.252 200.965 154.252C200.965 154.252 221.823 155.556 237.07 163.658C252.317 171.76 270.311 163.247 270.311 163.247L264.66 134.085Z" fill="black"/>
<path d="M249.832 116.147V146.274L253.382 189.915L271.117 222.926L262.653 228.965L238.468 197.564L228.902 166.385L213.88 235.406L202.594 234.601L210.432 138.904L225.306 111.968L249.832 116.147Z" fill="#2F2E41"/>
<path d="M231.609 87.0079C225.966 92.644 231.206 98.6826 231.206 98.6826L224.757 113.175L250.151 120.019L259.025 80.4144L252.979 73.9732C240.887 73.5706 240.88 73.3203 240.88 73.3203C238.761 75.3911 231.609 87.0079 231.609 87.0079Z" fill="url(#paint1_linear_1433_18013)"/>
<path d="M260.048 76.3115C258.895 75.4612 257.584 74.8479 256.191 74.5072C254.799 74.1664 253.353 74.105 251.937 74.3264C250.52 74.5478 249.162 75.0476 247.941 75.797C246.719 76.5464 245.659 77.5303 244.821 78.6919C238.437 87.5697 232.534 101.905 240.667 119.784C253.726 148.491 265.091 163.187 269.711 163.186C269.913 163.187 270.113 163.156 270.305 163.092C273.149 162.129 277.26 157.323 278.005 153.087C278.271 151.571 278.208 149.46 276.392 148.01C271.178 143.845 261.818 130.876 258.898 113.806C257.284 104.373 260.414 95.7814 263.323 90.2348C264.552 87.9397 264.911 85.2792 264.336 82.7409C263.76 80.2027 262.287 77.9567 260.188 76.4147L260.048 76.3115Z" fill="#3F3D56"/>
<path d="M252.006 66.5425C257.182 63.7164 259.084 57.2343 256.255 52.0644C253.425 46.8945 246.935 44.9944 241.758 47.8206C236.582 50.6467 234.68 57.1288 237.509 62.2987C240.339 67.4686 246.829 69.3686 252.006 66.5425Z" fill="#FFB7B7"/>
<path d="M231.859 56.3749H247.283L247.442 54.1632L248.232 56.3749H250.607L250.921 51.9915L252.488 56.3749H257.084V56.1577C257.08 53.106 255.865 50.1803 253.704 48.0224C251.544 45.8645 248.614 44.6507 245.559 44.6472H243.384C240.329 44.6507 237.399 45.8645 235.239 48.0224C233.078 50.1803 231.863 53.106 231.859 56.1577V56.3749Z" fill="#2F2E41"/>
<path d="M254.754 64.3246L261.336 62.1915V46.2271H248.903L249.211 46.534C253.494 50.8057 258.257 65.9611 254.754 64.3246Z" fill="#2F2E41"/>
<path d="M212.134 16.1186C216.127 16.1186 219.363 12.8862 219.363 8.89879C219.363 4.91138 216.127 1.67896 212.134 1.67896C208.142 1.67896 204.905 4.91138 204.905 8.89879C204.905 12.8862 208.142 16.1186 212.134 16.1186Z" fill="#F1F1F1"/>
</g>
<defs>
<linearGradient id="paint0_linear_1433_18013" x1="111.729" y1="139.496" x2="30.7385" y2="115.984" gradientUnits="userSpaceOnUse">
<stop stop-color="#584CF4"/>
<stop offset="1" stop-color="#7369F8"/>
</linearGradient>
<linearGradient id="paint1_linear_1433_18013" x1="259.025" y1="120.019" x2="216.735" y2="111.021" gradientUnits="userSpaceOnUse">
<stop stop-color="#584CF4"/>
<stop offset="1" stop-color="#7369F8"/>
</linearGradient>
<clipPath id="clip0_1433_18013">
<rect width="329" height="250" fill="white" transform="translate(0.5 0.333374)"/>
</clipPath>
</defs>
</svg>
