<svg width="21" height="21" viewBox="0 0 21 21" fill="none" xmlns="http://www.w3.org/2000/svg">
<path fill-rule="evenodd" clip-rule="evenodd" d="M9.41226 9.21152L8.36526 12.5585L11.7113 11.5105L12.7593 8.16352L9.41226 9.21152ZM7.22126 14.4515C7.02526 14.4515 6.83326 14.3745 6.69026 14.2325C6.49326 14.0345 6.42126 13.7435 6.50526 13.4785L8.09826 8.38952C8.17126 8.15352 8.35526 7.97052 8.58926 7.89752L13.6783 6.30452C13.9453 6.21952 14.2353 6.29252 14.4333 6.48952C14.6303 6.68752 14.7023 6.97852 14.6183 7.24352L13.0263 12.3325C12.9533 12.5675 12.7683 12.7515 12.5343 12.8245L7.44526 14.4175C7.37126 14.4405 7.29526 14.4515 7.22126 14.4515Z" fill="#9E9E9E"/>
<mask id="mask0_1611_15988" style="mask-type:luminance" maskUnits="userSpaceOnUse" x="0" y="0" width="21" height="21">
<path fill-rule="evenodd" clip-rule="evenodd" d="M0.201172 0H20.923V20.7217H0.201172V0Z" fill="white"/>
</mask>
<g mask="url(#mask0_1611_15988)">
<path fill-rule="evenodd" clip-rule="evenodd" d="M10.5622 1.5C5.67617 1.5 1.70117 5.476 1.70117 10.361C1.70117 15.247 5.67617 19.222 10.5622 19.222C15.4482 19.222 19.4232 15.247 19.4232 10.361C19.4232 5.476 15.4482 1.5 10.5622 1.5ZM10.5622 20.722C4.84917 20.722 0.201172 16.074 0.201172 10.361C0.201172 4.648 4.84917 0 10.5622 0C16.2752 0 20.9232 4.648 20.9232 10.361C20.9232 16.074 16.2752 20.722 10.5622 20.722Z" fill="#9E9E9E"/>
</g>
</svg>
