<svg width="21" height="20" viewBox="0 0 21 20" fill="none" xmlns="http://www.w3.org/2000/svg">
<path fill-rule="evenodd" clip-rule="evenodd" d="M0.201172 10C0.201172 4.48 4.67117 0 10.2012 0C15.7212 0 20.2012 4.48 20.2012 10C20.2012 15.53 15.7212 20 10.2012 20C4.67117 20 0.201172 15.53 0.201172 10ZM12.4312 11.83L14.0512 6.71C14.1612 6.36 13.8412 6.03 13.4912 6.14L8.37117 7.74C8.16117 7.81 7.99117 7.97 7.93117 8.18L6.33117 13.31C6.22117 13.65 6.55117 13.98 6.89117 13.87L11.9912 12.27C12.2012 12.21 12.3712 12.04 12.4312 11.83Z" fill="#D3DD41"/>
</svg>