<svg width="21" height="20" viewBox="0 0 21 20" fill="none" xmlns="http://www.w3.org/2000/svg">
<path fill-rule="evenodd" clip-rule="evenodd" d="M8.75937 16.6919H1.4082C0.925203 16.6919 0.533203 16.2999 0.533203 15.8169C0.533203 15.3339 0.925203 14.9419 1.4082 14.9419H8.75937C9.24237 14.9419 9.63437 15.3339 9.63437 15.8169C9.63437 16.2999 9.24237 16.6919 8.75937 16.6919" fill="white"/>
<path fill-rule="evenodd" clip-rule="evenodd" d="M19.3891 5.38379H12.0391C11.5561 5.38379 11.1641 4.99179 11.1641 4.50879C11.1641 4.02579 11.5561 3.63379 12.0391 3.63379H19.3891C19.8721 3.63379 20.2641 4.02579 20.2641 4.50879C20.2641 4.99179 19.8721 5.38379 19.3891 5.38379" fill="white"/>
<mask id="mask0_1714_16527" style="mask-type:luminance" maskUnits="userSpaceOnUse" x="0" y="0" width="8" height="9">
<path fill-rule="evenodd" clip-rule="evenodd" d="M0.5 0.833984H7.76343V8.05752H0.5V0.833984Z" fill="white"/>
</mask>
<g mask="url(#mask0_1714_16527)">
<path fill-rule="evenodd" clip-rule="evenodd" d="M4.13183 2.5835C3.09467 2.5835 2.25 3.41883 2.25 4.44666C2.25 5.47333 3.09467 6.3075 4.13183 6.3075C5.17017 6.3075 6.01367 5.47333 6.01367 4.44666C6.01367 3.41883 5.17017 2.5835 4.13183 2.5835M4.13183 8.0575C2.12983 8.0575 0.5 6.43816 0.5 4.44666C0.5 2.45516 2.12983 0.833496 4.13183 0.833496C6.135 0.833496 7.76367 2.45516 7.76367 4.44666C7.76367 6.43816 6.135 8.0575 4.13183 8.0575" fill="white"/>
</g>
<path fill-rule="evenodd" clip-rule="evenodd" d="M17.2853 13.9097C16.247 13.9097 15.4023 14.745 15.4023 15.7717C15.4023 16.7995 16.247 17.6337 17.2853 17.6337C18.3225 17.6337 19.166 16.7995 19.166 15.7717C19.166 14.745 18.3225 13.9097 17.2853 13.9097M17.2853 19.3837C15.2822 19.3837 13.6523 17.7632 13.6523 15.7717C13.6523 13.7802 15.2822 12.1597 17.2853 12.1597C19.2873 12.1597 20.916 13.7802 20.916 15.7717C20.916 17.7632 19.2873 19.3837 17.2853 19.3837" fill="white"/>
</svg>
