<svg width="16" height="18" viewBox="0 0 16 18" fill="none" xmlns="http://www.w3.org/2000/svg">
<path fill-rule="evenodd" clip-rule="evenodd" d="M0.916992 7.59814C0.916992 3.76491 4.12023 0.666672 7.99486 0.666672C11.8804 0.666672 15.0837 3.76491 15.0837 7.59814C15.0837 9.52975 14.3812 11.323 13.2249 12.843C11.9493 14.5196 10.3771 15.9804 8.60744 17.127C8.20242 17.392 7.83689 17.412 7.39237 17.127C5.61261 15.9804 4.0404 14.5196 2.77574 12.843C1.61865 11.323 0.916992 9.52975 0.916992 7.59814ZM5.66218 7.81396C5.66218 9.09809 6.71004 10.1081 7.99486 10.1081C9.28053 10.1081 10.3385 9.09809 10.3385 7.81396C10.3385 6.53983 9.28053 5.4807 7.99486 5.4807C6.71004 5.4807 5.66218 6.53983 5.66218 7.81396Z" fill="url(#paint0_linear_1628_6561)"/>
<defs>
<linearGradient id="paint0_linear_1628_6561" x1="15.0837" y1="17.3333" x2="-2.14413" y2="13.0876" gradientUnits="userSpaceOnUse">
<stop stop-color="#D3DD41"/>
<stop offset="1" stop-color="#D3DD41"/>
</linearGradient>
</defs>
</svg>
