<svg width="21" height="16" viewBox="0 0 21 16" fill="none" xmlns="http://www.w3.org/2000/svg">
<path fill-rule="evenodd" clip-rule="evenodd" d="M20.588 6.53905C20.4526 6.67058 20.2689 6.74574 20.0754 6.74574C19.3598 6.74574 18.7795 7.30945 18.7795 7.9953C18.7795 8.68585 19.353 9.24674 20.0619 9.25426C20.4613 9.25802 20.8008 9.5286 20.8008 9.91662V12.3265C20.8008 14.3549 19.1083 16 17.0194 16H13.8665C13.5406 16 13.2766 15.7435 13.2766 15.4269V13.3975C13.2766 13.0029 12.9575 12.6929 12.5513 12.6929C12.1547 12.6929 11.8259 13.0029 11.8259 13.3975V15.4269C11.8259 15.7435 11.5619 16 11.237 16H4.58221C2.50291 16 0.800781 14.3558 0.800781 12.3265V9.91662C0.800781 9.5286 1.14024 9.25802 1.53966 9.25426C2.24952 9.24674 2.82206 8.68585 2.82206 7.9953C2.82206 7.32824 2.26113 6.8209 1.52612 6.8209C1.3327 6.8209 1.14894 6.74574 1.01355 6.61421C0.878151 6.48268 0.800781 6.30417 0.800781 6.11627V3.68291C0.800781 1.65731 2.50678 0 4.59188 0H11.237C11.5619 0 11.8259 0.256489 11.8259 0.573106V2.97827C11.8259 3.36348 12.1547 3.68291 12.5513 3.68291C12.9575 3.68291 13.2766 3.36348 13.2766 2.97827V0.573106C13.2766 0.256489 13.5406 0 13.8665 0H17.0194C19.1083 0 20.8008 1.64416 20.8008 3.67352V6.0411C20.8008 6.22901 20.7234 6.40752 20.588 6.53905ZM12.5513 10.8702C12.9575 10.8702 13.2766 10.5508 13.2766 10.1656V6.40752C13.2766 6.02231 12.9575 5.70288 12.5513 5.70288C12.1547 5.70288 11.8259 6.02231 11.8259 6.40752V10.1656C11.8259 10.5508 12.1547 10.8702 12.5513 10.8702Z" fill="#D3DD41"/>
</svg>
